<svg width="711" height="200" viewBox="0 0 711 200" fill="none" xmlns="http://www.w3.org/2000/svg">
<path d="M150.53 15H0C10.9256 17.4275 18.6139 27.1374 18.6139 38.0611V174C33.586 159.031 41.679 139.206 41.679 118.168V42.1069C41.679 40.084 43.2976 38.0611 45.7255 38.0611C47.7488 38.0611 49.772 39.6794 49.772 42.1069V143.252C64.7441 128.282 72.8372 108.458 72.8372 87.4198V42.1069C72.8372 40.084 74.4558 38.0611 76.8837 38.0611C78.907 38.0611 80.9302 39.6794 80.9302 42.1069V112.504L101.163 92.2748C101.972 91.4656 102.377 90.6565 102.781 89.8473V89.4427C103.591 88.229 103.591 87.0153 103.995 85.3969C106.019 59.0992 127.87 38.0611 154.981 38.0611H174L150.53 15Z" fill="#8F19A6"/>
<path d="M255.75 86.0625V20.7656C255.75 20.1406 256.062 19.8125 256.688 19.7812H263.438C265.281 19.7812 266.719 20.75 267.75 22.6875L292.5 69.7969L317.203 22.6875C318.234 20.7812 319.672 19.8125 321.516 19.7812H328.219C328.844 19.7812 329.172 20.1094 329.203 20.7656V86.0625C329.203 86.6875 328.875 87 328.219 87H321.516C320.891 87 320.562 86.6875 320.531 86.0625V34.2188L298.453 75.9375C297.422 77.8438 295.984 78.8125 294.141 78.8438H290.766C288.922 78.8438 287.484 77.875 286.453 75.9375L264.375 34.2188V86.0625C264.375 86.6875 264.062 87 263.438 87H256.688C256.062 87 255.75 86.6875 255.75 86.0625ZM349.922 84.0938C346.328 81.1562 344.531 77.1719 344.531 72.1406C344.531 67.0781 346.375 63.0938 350.062 60.1875C353.781 57.25 358.969 55.7812 365.625 55.7812H381.984V55.3125C381.984 45.7188 377.172 40.9219 367.547 40.9219C364.547 40.9219 361.984 41.6406 359.859 43.0781C357.766 44.5156 356.328 46.3594 355.547 48.6094C355.359 49.2344 354.984 49.5469 354.422 49.5469H348.375C347.656 49.5469 347.328 49.2344 347.391 48.6094C347.891 44.2656 349.953 40.7812 353.578 38.1562C357.203 35.5312 361.859 34.2188 367.547 34.2188C374.984 34.2188 380.688 36.0625 384.656 39.75C388.625 43.4062 390.609 48.5938 390.609 55.3125V86.0625C390.609 86.6875 390.281 87 389.625 87H384.375C383.75 87 383.391 86.6875 383.297 86.0625L382.453 80.7656C382.078 81.3594 381.25 82.1875 379.969 83.25C378.688 84.2812 377.406 85.125 376.125 85.7812C372.75 87.5625 368.938 88.4531 364.688 88.4531C358.469 88.4531 353.547 87 349.922 84.0938ZM353.156 72.1406C353.156 75.2656 354.188 77.6406 356.25 79.2656C358.344 80.8906 361.312 81.7031 365.156 81.7031C367.219 81.7031 369.203 81.3594 371.109 80.6719C373.047 79.9531 374.625 79.125 375.844 78.1875C377.094 77.2188 378.203 76.2344 379.172 75.2344C380.141 74.2344 380.844 73.4062 381.281 72.75C381.75 72.0625 381.984 71.6875 381.984 71.625V62.5312H365.625C357.312 62.5312 353.156 65.7344 353.156 72.1406ZM408.844 86.0625V36.6094C408.844 35.9531 409.156 35.625 409.781 35.625H415.078C415.703 35.625 416.047 35.9531 416.109 36.6094L417 44.7656L417.75 43.6875C418.094 43.25 418.875 42.4375 420.094 41.25C421.344 40.0625 422.719 39.0469 424.219 38.2031C425.75 37.3281 427.75 36.5312 430.219 35.8125C432.719 35.0625 435.344 34.6875 438.094 34.6875H441.938C442.594 34.6875 442.922 35 442.922 35.625V41.3906C442.922 42.0469 442.594 42.375 441.938 42.375H439.078C435.953 42.375 433.078 42.7812 430.453 43.5938C427.828 44.375 425.734 45.3281 424.172 46.4531C421.016 48.7656 418.969 50.8281 418.031 52.6406L417.469 53.8594V86.0625C417.469 86.6875 417.156 87 416.531 87H409.781C409.156 87 408.844 86.6875 408.844 86.0625ZM474.375 88.4531C467.375 88.4531 461.594 86.1094 457.031 81.4219C452.469 76.7031 450.188 69.9844 450.188 61.2656C450.188 52.5156 452.469 45.8281 457.031 41.2031C461.625 36.5469 467.375 34.2188 474.281 34.2188C481.188 34.2188 486.594 35.6406 490.5 38.4844C494.406 41.3281 496.969 45.2812 498.188 50.3438C498.375 51.125 498.047 51.5 497.203 51.4688H491.156C490.719 51.4688 490.344 51.1562 490.031 50.5312C487.094 44.125 482.125 40.9219 475.125 40.9219C470.25 40.9219 466.312 42.625 463.312 46.0312C460.312 49.4062 458.812 54.4688 458.812 61.2188C458.812 67.9688 460.312 73.0781 463.312 76.5469C466.344 79.9844 470.047 81.7031 474.422 81.7031C478.797 81.7031 482.188 80.9062 484.594 79.3125C487 77.7188 488.969 75.3281 490.5 72.1406C490.812 71.5156 491.203 71.1875 491.672 71.1562H497.719C498.406 71.1562 498.734 71.4062 498.703 71.9062C498.703 72.0312 498.688 72.1719 498.656 72.3281C497.438 77.4531 494.844 81.4219 490.875 84.2344C486.906 87.0469 481.406 88.4531 474.375 88.4531ZM534.469 88.5469C527.5 88.5469 521.719 86.1875 517.125 81.4688C512.562 76.7188 510.281 69.9844 510.281 61.2656C510.281 52.5156 512.562 45.8281 517.125 41.2031C521.719 36.5469 527.703 34.2188 535.078 34.2188C542.484 34.2188 548.516 36.5938 553.172 41.3438C557.859 46.0625 560.203 52.3281 560.203 60.1406V62.5312C560.203 63.8125 559.562 64.4531 558.281 64.4531H519C519.531 70.2656 521.25 74.6094 524.156 77.4844C527.062 80.3594 530.75 81.7969 535.219 81.7969C542.281 81.7969 547.406 78.9219 550.594 73.1719C550.969 72.5469 551.359 72.2344 551.766 72.2344H557.812C558.625 72.2344 558.938 72.6094 558.75 73.3594C557.469 77.9844 554.844 81.6719 550.875 84.4219C546.906 87.1719 541.438 88.5469 534.469 88.5469ZM519 57.7031H551.578C551.297 52.6719 549.578 48.625 546.422 45.5625C543.266 42.4688 539.5 40.9219 535.125 40.9219C530.781 40.9219 527.141 42.3438 524.203 45.1875C521.266 48.0312 519.531 52.2031 519 57.7031ZM575.625 86.0625V20.7656C575.625 20.1094 575.938 19.7812 576.562 19.7812H583.312C583.938 19.7812 584.25 20.1094 584.25 20.7656V86.0625C584.25 86.6875 583.938 87 583.312 87H576.562C575.938 87 575.625 86.6875 575.625 86.0625Z" fill="white"/>
<path d="M138.844 173.062V107.766C138.844 107.141 139.156 106.812 139.781 106.781H146.531C147.156 106.781 147.469 107.109 147.469 107.766V137.062H154.688C160.438 137.062 164.906 134.656 168.094 129.844L182.531 107.766C182.969 107.141 183.438 106.812 183.938 106.781H191.812C192.844 106.781 193.109 107.172 192.609 107.953L177.703 130.781C173.984 136.469 170.141 139.672 166.172 140.391C170.766 141.109 174.938 144.312 178.688 150L193.547 172.828C193.703 173.078 193.781 173.344 193.781 173.625C193.812 173.875 193.484 174 192.797 174H184.922C184.422 174 183.938 173.688 183.469 173.062L169.078 150.938C165.891 146.125 161.406 143.734 155.625 143.766H147.469V173.062C147.469 173.688 147.156 174 146.531 174H139.781C139.156 174 138.844 173.688 138.844 173.062ZM206.016 171.094C202.422 168.156 200.625 164.172 200.625 159.141C200.625 154.078 202.469 150.094 206.156 147.188C209.875 144.25 215.062 142.781 221.719 142.781H238.078V142.312C238.078 132.719 233.266 127.922 223.641 127.922C220.641 127.922 218.078 128.641 215.953 130.078C213.859 131.516 212.422 133.359 211.641 135.609C211.453 136.234 211.078 136.547 210.516 136.547H204.469C203.75 136.547 203.422 136.234 203.484 135.609C203.984 131.266 206.047 127.781 209.672 125.156C213.297 122.531 217.953 121.219 223.641 121.219C231.078 121.219 236.781 123.062 240.75 126.75C244.719 130.406 246.703 135.594 246.703 142.312V173.062C246.703 173.688 246.375 174 245.719 174H240.469C239.844 174 239.484 173.688 239.391 173.062L238.547 167.766C238.172 168.359 237.344 169.188 236.062 170.25C234.781 171.281 233.5 172.125 232.219 172.781C228.844 174.562 225.031 175.453 220.781 175.453C214.562 175.453 209.641 174 206.016 171.094ZM209.25 159.141C209.25 162.266 210.281 164.641 212.344 166.266C214.438 167.891 217.406 168.703 221.25 168.703C223.312 168.703 225.297 168.359 227.203 167.672C229.141 166.953 230.719 166.125 231.938 165.188C233.188 164.219 234.297 163.234 235.266 162.234C236.234 161.234 236.938 160.406 237.375 159.75C237.844 159.062 238.078 158.688 238.078 158.625V149.531H221.719C213.406 149.531 209.25 152.734 209.25 159.141ZM285.281 175.453C278.281 175.453 272.5 173.109 267.938 168.422C263.375 163.703 261.094 156.984 261.094 148.266C261.094 139.516 263.375 132.828 267.938 128.203C272.531 123.547 278.281 121.219 285.188 121.219C292.094 121.219 297.5 122.641 301.406 125.484C305.312 128.328 307.875 132.281 309.094 137.344C309.281 138.125 308.953 138.5 308.109 138.469H302.062C301.625 138.469 301.25 138.156 300.938 137.531C298 131.125 293.031 127.922 286.031 127.922C281.156 127.922 277.219 129.625 274.219 133.031C271.219 136.406 269.719 141.469 269.719 148.219C269.719 154.969 271.219 160.078 274.219 163.547C277.25 166.984 280.953 168.703 285.328 168.703C289.703 168.703 293.094 167.906 295.5 166.312C297.906 164.719 299.875 162.328 301.406 159.141C301.719 158.516 302.109 158.188 302.578 158.156H308.625C309.312 158.156 309.641 158.406 309.609 158.906C309.609 159.031 309.594 159.172 309.562 159.328C308.344 164.453 305.75 168.422 301.781 171.234C297.812 174.047 292.312 175.453 285.281 175.453ZM318.797 173.062V168.703C318.797 168.016 319 167.484 319.406 167.109L351.75 129.375H319.781C319.125 129.375 318.797 129.047 318.797 128.391V123.609C318.797 122.953 319.125 122.625 319.781 122.625H361.828C362.453 122.625 362.766 122.953 362.766 123.609V127.922C362.766 128.609 362.578 129.156 362.203 129.562L329.672 167.297H361.828C362.453 167.297 362.766 167.609 362.766 168.234V173.062C362.766 173.688 362.453 174 361.828 174H319.781C319.125 174 318.797 173.688 318.797 173.062ZM377.25 173.062V123.609C377.25 122.953 377.562 122.625 378.188 122.625H383.484C384.109 122.625 384.453 122.953 384.516 123.609L385.406 128.859C385.594 128.672 385.844 128.406 386.156 128.062C386.5 127.719 387.188 127.094 388.219 126.188C389.281 125.281 390.391 124.5 391.547 123.844C394.547 122.094 397.859 121.219 401.484 121.219C405.109 121.219 408.328 122.094 411.141 123.844C413.953 125.594 416.094 128.078 417.562 131.297C418.469 129.953 419.578 128.625 420.891 127.312C422.203 126 424.203 124.656 426.891 123.281C429.578 121.906 432.391 121.219 435.328 121.219C441.016 121.219 445.547 123.141 448.922 126.984C452.328 130.797 454.031 136.234 454.031 143.297V173.062C454.031 173.688 453.719 174 453.094 174H446.344C445.719 174 445.406 173.688 445.406 173.062V143.297C445.406 138.234 444.406 134.406 442.406 131.812C440.438 129.219 438.047 127.922 435.234 127.922C432.422 127.922 429.781 128.797 427.312 130.547C424.844 132.266 423 133.891 421.781 135.422C420.562 136.953 419.953 137.812 419.953 138V173.062C419.953 173.688 419.641 174 419.016 174H412.266C411.641 174 411.328 173.688 411.328 173.062V143.297C411.328 138.234 410.328 134.406 408.328 131.812C406.359 129.219 403.969 127.922 401.156 127.922C398.344 127.922 395.703 128.797 393.234 130.547C390.766 132.266 388.922 133.891 387.703 135.422C386.484 136.953 385.875 137.812 385.875 138V173.062C385.875 173.688 385.562 174 384.938 174H378.188C377.562 174 377.25 173.688 377.25 173.062ZM473.859 171.094C470.266 168.156 468.469 164.172 468.469 159.141C468.469 154.078 470.312 150.094 474 147.188C477.719 144.25 482.906 142.781 489.562 142.781H505.922V142.312C505.922 132.719 501.109 127.922 491.484 127.922C488.484 127.922 485.922 128.641 483.797 130.078C481.703 131.516 480.266 133.359 479.484 135.609C479.297 136.234 478.922 136.547 478.359 136.547H472.312C471.594 136.547 471.266 136.234 471.328 135.609C471.828 131.266 473.891 127.781 477.516 125.156C481.141 122.531 485.797 121.219 491.484 121.219C498.922 121.219 504.625 123.062 508.594 126.75C512.562 130.406 514.547 135.594 514.547 142.312V173.062C514.547 173.688 514.219 174 513.562 174H508.312C507.688 174 507.328 173.688 507.234 173.062L506.391 167.766C506.016 168.359 505.188 169.188 503.906 170.25C502.625 171.281 501.344 172.125 500.062 172.781C496.688 174.562 492.875 175.453 488.625 175.453C482.406 175.453 477.484 174 473.859 171.094ZM477.094 159.141C477.094 162.266 478.125 164.641 480.188 166.266C482.281 167.891 485.25 168.703 489.094 168.703C491.156 168.703 493.141 168.359 495.047 167.672C496.984 166.953 498.562 166.125 499.781 165.188C501.031 164.219 502.141 163.234 503.109 162.234C504.078 161.234 504.781 160.406 505.219 159.75C505.688 159.062 505.922 158.688 505.922 158.625V149.531H489.562C481.25 149.531 477.094 152.734 477.094 159.141ZM532.781 173.062V123.609C532.781 122.953 533.094 122.625 533.719 122.625H539.016C539.641 122.625 539.984 122.953 540.047 123.609L540.938 131.766L541.688 130.688C542.031 130.25 542.812 129.438 544.031 128.25C545.281 127.062 546.656 126.047 548.156 125.203C549.688 124.328 551.688 123.531 554.156 122.812C556.656 122.062 559.281 121.688 562.031 121.688H565.875C566.531 121.688 566.859 122 566.859 122.625V128.391C566.859 129.047 566.531 129.375 565.875 129.375H563.016C559.891 129.375 557.016 129.781 554.391 130.594C551.766 131.375 549.672 132.328 548.109 133.453C544.953 135.766 542.906 137.828 541.969 139.641L541.406 140.859V173.062C541.406 173.688 541.094 174 540.469 174H533.719C533.094 174 532.781 173.688 532.781 173.062ZM573.234 160.266C573.203 160.109 573.188 159.984 573.188 159.891C573.188 159.391 573.531 159.141 574.219 159.141H580.266C580.641 159.141 581.031 159.453 581.438 160.078C584.625 165.828 590.219 168.703 598.219 168.703C602.75 168.703 606.125 168.031 608.344 166.688C610.562 165.344 611.672 163.656 611.672 161.625C611.672 159.594 610.906 157.938 609.375 156.656C607.875 155.344 605.281 154.25 601.594 153.375L589.594 150.469C579.344 147.969 574.219 143.016 574.219 135.609C574.219 131.391 576.125 127.938 579.938 125.25C583.75 122.562 588.984 121.219 595.641 121.219C602.297 121.219 607.672 122.594 611.766 125.344C615.859 128.094 618.547 131.766 619.828 136.359C620.016 137.141 619.688 137.531 618.844 137.531H612.797C612.422 137.531 612.047 137.203 611.672 136.547C608.484 130.797 603.203 127.922 595.828 127.922C591.547 127.922 588.312 128.609 586.125 129.984C583.938 131.359 582.844 133.062 582.844 135.094C582.844 137.094 583.594 138.734 585.094 140.016C586.625 141.297 589.234 142.391 592.922 143.297L604.922 146.156C615.172 148.594 620.297 153.562 620.297 161.062C620.297 165.281 618.359 168.734 614.484 171.422C610.609 174.109 605.188 175.453 598.219 175.453C591.25 175.453 585.656 174.094 581.438 171.375C577.25 168.656 574.516 164.953 573.234 160.266ZM634.688 173.062V107.766C634.688 107.141 635 106.812 635.625 106.781H642.375C643 106.781 643.312 107.109 643.312 107.766V144.703H648.141C653.391 144.703 657.547 142.312 660.609 137.531L669.328 123.609C669.766 122.984 670.25 122.656 670.781 122.625H678.188C679.156 122.625 679.375 123.016 678.844 123.797L669.703 138.469C666.391 143.781 662.391 146.828 657.703 147.609C662.578 148.328 666.906 151.688 670.688 157.688L680.203 172.828C680.391 173.109 680.469 173.375 680.438 173.625C680.438 173.875 680.125 174 679.5 174H672.141C671.641 174 671.156 173.688 670.688 173.062L661.547 158.625C658.484 153.812 654.328 151.422 649.078 151.453H643.312V173.062C643.312 173.688 643 174 642.375 174H635.625C635 174 634.688 173.688 634.688 173.062ZM692.016 108.703C692.016 107.422 692.656 106.781 693.938 106.781H700.172C700.891 106.781 701.391 106.938 701.672 107.25C701.953 107.531 702.094 108.016 702.094 108.703V114.938C702.094 115.656 701.953 116.156 701.672 116.438C701.391 116.719 700.891 116.859 700.172 116.859H693.938C693.25 116.859 692.75 116.719 692.438 116.438C692.156 116.156 692.016 115.656 692.016 114.938V108.703ZM692.719 173.062V123.609C692.719 122.953 693.031 122.625 693.656 122.625H700.359C701.016 122.625 701.344 122.953 701.344 123.609V173.062C701.344 173.688 701.016 174 700.359 174H693.656C693.031 174 692.719 173.688 692.719 173.062Z" fill="white"/>
</svg>
